<svg xmlns="http://www.w3.org/2000/svg" width="45.498" height="45.361" viewBox="0 0 45.498 45.361">
  <path id="Path_4126" data-name="Path 4126" d="M41.628,27.039a7.163,7.163,0,0,1-1.525-.273,22.444,22.444,0,0,1-2.982-.888,4.553,4.553,0,0,0-5.645,2.276l-.5,1.047A29.979,29.979,0,0,1,24.9,24.649a29.979,29.979,0,0,1-4.553-6.078l1.047-.478a4.553,4.553,0,0,0,2.276-5.645,23.833,23.833,0,0,1-.888-3c-.114-.5-.2-1.024-.273-1.525A6.829,6.829,0,0,0,15.678,2.25H8.826A6.806,6.806,0,0,0,2.065,9.99,43.409,43.409,0,0,0,14.38,35.029,43.409,43.409,0,0,0,39.42,47.344a5.828,5.828,0,0,0,.888,0,6.813,6.813,0,0,0,6.829-6.829V33.686a6.829,6.829,0,0,0-5.509-6.647ZM42.743,40.7a2.288,2.288,0,0,1-2.618,2.254A39.061,39.061,0,0,1,17.658,31.933,39.062,39.062,0,0,1,6.55,9.4,2.288,2.288,0,0,1,8.826,6.78h6.829a2.276,2.276,0,0,1,2.276,1.776,8.958,8.958,0,0,0,.341,1.867,25.04,25.04,0,0,0,1.047,3.506l-3.187,1.5a2.373,2.373,0,0,0-1.184,3A32.984,32.984,0,0,0,30.884,34.369a2.373,2.373,0,0,0,3-1.184L35.322,30a28.25,28.25,0,0,0,3.6,1.047c.592.137,1.229.25,1.844.341a2.276,2.276,0,0,1,1.776,2.276ZM29.313,2H27.719a2.285,2.285,0,0,0,.387,4.553h1.206A13.658,13.658,0,0,1,42.971,20.21v1.206a2.276,2.276,0,0,0,2.071,2.458h.182A2.276,2.276,0,0,0,47.5,21.8V20.21A18.21,18.21,0,0,0,29.313,2Zm4.553,18.21a2.276,2.276,0,1,0,4.553,0,9.105,9.105,0,0,0-9.105-9.105,2.276,2.276,0,1,0,0,4.553A4.553,4.553,0,0,1,33.865,20.21Z" transform="translate(-2.002 -2)" fill="#fff"/>
</svg>
