<svg xmlns="http://www.w3.org/2000/svg" width="39.608" height="45.361" viewBox="0 0 39.608 45.361">
  <path id="Path_4125" data-name="Path 4125" d="M20.8,0A12.772,12.772,0,0,0,8.045,12.751a1.417,1.417,0,0,0,.068.448c.119,4.475,2.057,8.389,4.336,12.016,2.358,3.749,5.087,7.263,6.838,10.851a1.417,1.417,0,0,0,2.534.028c1.842-3.585,4.71-7.1,7.187-10.851S33.6,17.45,33.6,12.774a1.417,1.417,0,0,0-.094-.527A12.754,12.754,0,0,0,20.8,0Zm0,2.834a9.9,9.9,0,0,1,9.919,9.919,1.417,1.417,0,0,0,.028.3c-.085,3.707-1.8,7.142-4.1,10.627-1.95,2.95-4.155,6-6.056,9.162-1.805-3.151-3.885-6.192-5.736-9.134-2.247-3.579-3.928-7.1-3.928-10.939a1.417,1.417,0,0,0-.023-.247,9.885,9.885,0,0,1,9.9-9.692Zm0,5.674a4.251,4.251,0,1,0,4.251,4.251A4.274,4.274,0,0,0,20.8,8.506Zm0,2.834a1.425,1.425,0,1,1-1.417,1.417A1.4,1.4,0,0,1,20.8,11.34ZM32.389,26.153a1.417,1.417,0,0,0-.51,2.738c2.825,1.145,4.642,2.644,5.424,4.024a3.373,3.373,0,0,1-.258,4.041c-2.055,2.936-8.6,5.538-16.08,5.569s-14.119-2.5-16.29-5.447a3.4,3.4,0,0,1-.411-4.047c.731-1.372,2.48-2.885,5.26-4.053a1.417,1.417,0,1,0-1.1-2.61C5.254,27.7,2.939,29.491,1.762,31.7a6.553,6.553,0,0,0,.632,7.057c3.208,4.347,10.517,6.631,18.588,6.6s15.309-2.372,18.387-6.773a6.532,6.532,0,0,0,.4-7.071c-1.241-2.188-3.608-3.951-6.824-5.251a1.417,1.417,0,0,0-.553-.113Z" transform="translate(-1.012 0.002)" fill="#fff"/>
</svg>
