<svg xmlns="http://www.w3.org/2000/svg" width="97.912" height="113.073" viewBox="0 0 97.912 113.073">
  <path id="Path_3900" data-name="Path 3900" d="M391.55,432.13c0,9.8.015,19.6-.013,29.395,0,1.684.34,3.148,1.893,4.032,1.594.907,3.084.437,4.548-.443q33.51-20.127,67.03-40.237c2.528-1.517,5.07-3.01,7.581-4.555,3.186-1.959,3.2-5.184.008-7.1q-37.4-22.464-74.813-44.922c-3.065-1.844-6.51.187-6.264,3.577.162,2.231.042,4.484.027,6.727a3.712,3.712,0,1,1-7.389.033,75.215,75.215,0,0,1,.2-8.6,11.066,11.066,0,0,1,16.607-8.3c5.689,3.273,11.279,6.719,16.909,10.1q29.022,17.413,58.049,34.817a11.5,11.5,0,0,1,5.859,7.722,11.11,11.11,0,0,1-5.065,12.005c-4.889,3.006-9.83,5.927-14.751,8.879q-30.136,18.08-60.27,36.162a11.012,11.012,0,0,1-12.044.14,10.614,10.614,0,0,1-5.486-9.569q-.067-29.985-.015-59.97a3.713,3.713,0,1,1,7.393.011Q391.561,417.079,391.55,432.13Z" transform="translate(-384.135 -360.207)" fill="#fff"/>
</svg>
