<svg xmlns="http://www.w3.org/2000/svg" width="224.177" height="472" viewBox="0 0 224.177 472">
  <g id="Group_12808" data-name="Group 12808" transform="translate(-1148.423 -591.053)">
    <g id="Group_12799" data-name="Group 12799" transform="translate(1221.953 591.053)">
      <path id="Path_3831" data-name="Path 3831" d="M1227.3,591.053l19.279,43.888,19.278,43.888h-77.114l19.279-43.888Z" transform="translate(-1188.741 -591.053)" fill="#fff"/>
    </g>
    <g id="Group_12800" data-name="Group 12800" transform="translate(1202.495 625.873)">
      <path id="Path_3832" data-name="Path 3832" d="M1294.1,742.22H1178.072l58.016-132.074Zm-104.862-7.295h93.688l-46.842-106.642Z" transform="translate(-1178.072 -610.146)" fill="#fff"/>
    </g>
    <g id="Group_12801" data-name="Group 12801" transform="translate(1148.423 889.86)">
      <path id="Path_3833" data-name="Path 3833" d="M1264.455,886.972H1148.423L1206.437,754.9Zm-104.862-7.295h93.688l-46.844-106.64Z" transform="translate(-1148.423 -754.898)" fill="#fff"/>
    </g>
    <g id="Group_12802" data-name="Group 12802" transform="translate(1256.568 889.86)">
      <path id="Path_3834" data-name="Path 3834" d="M1323.754,886.972H1207.722L1265.736,754.9Zm-104.862-7.295h93.688l-46.844-106.64Z" transform="translate(-1207.722 -754.898)" fill="#fff"/>
    </g>
    <g id="Group_12803" data-name="Group 12803" transform="translate(1205.726 768.893)">
      <path id="Path_3835" data-name="Path 3835" d="M1252.3,809.156h-35.349a37.15,37.15,0,0,1-37.109-37.107V688.568h109.568v83.481A37.149,37.149,0,0,1,1252.3,809.156Zm-65.163-113.293v76.186a29.848,29.848,0,0,0,29.814,29.812H1252.3a29.848,29.848,0,0,0,29.814-29.812V695.863Z" transform="translate(-1179.844 -688.568)" fill="#fff"/>
    </g>
    <g id="Group_12804" data-name="Group 12804" transform="translate(1171.639 973.521)">
      <path id="Path_3836" data-name="Path 3836" d="M1335.612,890.3H1161.153l41.3-87.914,2.6.131c0,5.422-.042,10.846.009,16.269.089,9.523-.221,19.078.451,28.563,1.437,20.329,9.974,31.083,30.122,34.045a80.211,80.211,0,0,0,33.155-2.562c15.469-4.521,22.312-17.194,22.689-32.935.35-14.619.222-29.249.339-43.873,0-.162.45-.321,1.855-1.257C1307.5,830.276,1321.226,859.587,1335.612,890.3Z" transform="translate(-1161.153 -800.772)" fill="#fff"/>
    </g>
  </g>
</svg>
