<svg xmlns="http://www.w3.org/2000/svg" width="299.594" height="108.01" viewBox="0 0 299.594 108.01">
  <g id="Group_12934" data-name="Group 12934" transform="translate(-2498.761 778.551)">
    <g id="Group_12923" data-name="Group 12923" transform="translate(2498.761 -778.551)">
      <path id="Path_3952" data-name="Path 3952" d="M2565.047-628.17q12.432,26.939,24.868,53.888c-.623.18-98.844.208-99.717.028l24.908-53.98.147.013c.011.27.032.54.032.81q0,13.01,0,26.021a28.325,28.325,0,0,0,1.075,8.087,18.6,18.6,0,0,0,12.206,12.858,28.543,28.543,0,0,0,7.684,1.559,38.522,38.522,0,0,0,12.2-.906,22.614,22.614,0,0,0,9.151-4.476,19.85,19.85,0,0,0,6.7-11.67,28.544,28.544,0,0,0,.551-5.743q0-12.81,0-25.619v-.839Z" transform="translate(-2490.197 682.142)"/>
      <path id="Path_3953" data-name="Path 3953" d="M2572-740.718l22.38-48.518.187-.014q11.173,24.223,22.385,48.531Z" transform="translate(-2544.614 789.249)"/>
      <path id="Path_3954" data-name="Path 3954" d="M2681.39-772.613h-.956V-777.7h1.52c.285,1.034.567,2.055.849,3.078l.142.015c.283-1.022.567-2.044.861-3.1h1.446a25.917,25.917,0,0,1,.073,5.069h-.886v-3.333l-.171-.026c-.294,1.118-.587,2.237-.888,3.383h-1.005l-.857-3.249-.129.013Z" transform="translate(-2616.743 781.571)"/>
      <path id="Path_3955" data-name="Path 3955" d="M2668.531-772.593h-.977v-4.221l-1.526-.1c-.014-.258-.026-.481-.042-.766h4.057v.774l-1.445.072C2668.5-775.422,2668.621-774,2668.531-772.593Z" transform="translate(-2607.133 781.555)"/>
    </g>
    <g id="Group_12921" data-name="Group 12921" transform="translate(2610.537 -754.285)">
      <path id="Path_3956" data-name="Path 3956" d="M2711.725-403.336h-9.855c-.166-2.334-.053-4.669-.072-6.994-.021-2.364-.006-4.727,0-7.092v-6.855a40.018,40.018,0,0,0-.436-7.166l-7.214,28.064h-9.223c-2.39-9.3-4.8-18.689-7.213-28.079l-.426.068v27.795c-1.721.7-3.378.3-4.989.366-1.569.069-3.142.016-4.672.016-.524-1.754-.707-35.689-.231-39.635h15.977c1.964,7.555,3.952,15.2,5.942,22.853l.495.03c1.964-7.619,3.928-15.24,5.91-22.927h16.011Z" transform="translate(-2545.62 442.917)"/>
      <path id="Path_3957" data-name="Path 3957" d="M2615.948-442.883h12.181c.039.923.107,1.763.109,2.6q.014,9.923.005,19.846c0,.551.012,1.1,0,1.653-.1,4.62,3.065,7.844,8.733,6.714a5.409,5.409,0,0,0,4.509-4.591,19.757,19.757,0,0,0,.3-3.52c.029-6.694.017-13.388.018-20.083V-442.9h12.063c.066.655.193,1.325.194,2,.016,7.087.033,14.176-.009,21.264a24.308,24.308,0,0,1-.4,4.464c-1.317,6.854-6.208,11.36-13.134,12.354a36.94,36.94,0,0,1-13.146-.522,13.2,13.2,0,0,1-10.437-9.824,26.4,26.4,0,0,1-.948-6.739c-.121-6.771-.041-13.545-.041-20.318Z" transform="translate(-2544.868 442.917)"/>
      <path id="Path_3958" data-name="Path 3958" d="M2593.824-409.656h-13.771c-.646,2.059-1.272,4.067-2,6.392-3.98.11-8.036.025-12.1.048.112-1.863,12.534-35.521,14.618-39.7h13.3q7.37,19.6,14.754,39.246c-1.811.551-8.737.687-12.733.269C2595.24-405.363,2594.56-407.427,2593.824-409.656Zm-6.619-22.07a105.571,105.571,0,0,0-4.342,13.116h8.37C2589.847-423.131,2588.526-427.428,2587.206-431.726Z" transform="translate(-2544.134 442.917)"/>
      <path id="Path_3959" data-name="Path 3959" d="M2705.868-387.313c2.286-.495,2.3-.5,3.331,1.146a43.255,43.255,0,0,0,4,5.708v-6.959l2.389-.227c.106,4.186.062,8.21.032,12.193-1.707.653-2.679.186-3.457-1.227-1.052-1.912-2.284-3.724-3.729-6.041-.582,2.719-.033,5.028-.439,7.395h-2.126Z" transform="translate(-2546.189 442.105)"/>
      <path id="Path_3960" data-name="Path 3960" d="M2592.231-381.1c-.229,4.843-3.765,6.841-8.136,5.808a4.092,4.092,0,0,1-.871-.35c-2.976-1.481-4.091-6.294-2.21-9.51a6.273,6.273,0,0,1,8.7-1.723A6.485,6.485,0,0,1,2592.231-381.1Zm-2.782-.425h.032c-.021-.392-.01-.789-.069-1.175a3.044,3.044,0,0,0-2.906-2.875,3.073,3.073,0,0,0-3.5,2.458,8.219,8.219,0,0,0-.116,2.8,3.347,3.347,0,0,0,3.3,3.1c1.774-.008,3.066-1.337,3.259-3.366C2589.475-380.891,2589.449-381.207,2589.449-381.521Z" transform="translate(-2544.342 442.109)"/>
      <path id="Path_3961" data-name="Path 3961" d="M2572.8-375.417c-2.149.6-3.353.135-4.147-1.476a16.664,16.664,0,0,0-1.592-2.326,2.172,2.172,0,0,0-2.833-.862v4.741l-2.47.212c-.137-4.2-.05-8.219-.065-12.4,2.529,0,4.784-.1,7.029.031a2.9,2.9,0,0,1,3,2.478,3.361,3.361,0,0,1-1.559,3.84c-.309.212-.649.378-.893.518C2570.436-378.932,2571.557-377.267,2572.8-375.417Zm-8.528-7.1c1.336,0,2.427.067,3.5-.021.882-.072,1.583-.661,1.335-1.561a2.13,2.13,0,0,0-1.382-1.3,19.32,19.32,0,0,0-3.457.011Z" transform="translate(-2544.071 442.104)"/>
      <path id="Path_3962" data-name="Path 3962" d="M2697.344-381.3c-.034,4.525-3.335,7.144-7.729,6.107a5.758,5.758,0,0,1-1.53-.606c-2.513-1.446-3.549-5.227-2.343-8.432a5.822,5.822,0,0,1,6.71-3.577c3,.51,4.8,2.728,4.889,6.035C2697.347-381.619,2697.344-381.461,2697.344-381.3Zm-2.633-.154c.013-2.744-1.373-4.3-3.69-4.124-1.918.143-3.062,1.629-3.093,4.029-.036,2.541,1.321,4.3,3.354,4.339S2694.7-378.877,2694.711-381.457Z" transform="translate(-2545.886 442.109)"/>
      <path id="Path_3963" data-name="Path 3963" d="M2600.728-375.251v-12.187c2.311,0,4.483-.012,6.655.015a2.241,2.241,0,0,1,.878.31c2.147,1.049,3.2,3.873,2.709,7.236-.381,2.605-1.842,4.308-4.331,4.586A55.694,55.694,0,0,1,2600.728-375.251Zm2.569-2.212c1.78-.132,3.456.617,4.544-1.089.846-1.324.764-4.763-.168-5.874-1.187-1.41-2.73-1.129-4.376-.874Z" transform="translate(-2544.646 442.102)"/>
      <path id="Path_3964" data-name="Path 3964" d="M2733.953-384.311c-1.375.37-2.356.6-3.149-.658a2.373,2.373,0,0,0-1.649-.665c-.755-.063-1.734-.072-1.918.923-.2,1.072.818,1.2,1.524,1.445,1.037.362,2.14.559,3.151.975a3.557,3.557,0,0,1,2.35,3.7,3.63,3.63,0,0,1-2.905,3.324,11.766,11.766,0,0,1-3.976.025c-1.968-.346-2.835-1.658-2.963-3.991l1.912-.269c.222.344.4.67.623.969a2.721,2.721,0,0,0,3.681,1.018,1.835,1.835,0,0,0,.871-1.242,1.682,1.682,0,0,0-.861-1.207,25.329,25.329,0,0,0-2.466-.783,9.3,9.3,0,0,1-2.336-1.07,3.2,3.2,0,0,1-.516-4.619c1.681-2.05,6.3-1.957,7.827.205A9.652,9.652,0,0,1,2733.953-384.311Z" transform="translate(-2546.462 442.109)"/>
      <path id="Path_3965" data-name="Path 3965" d="M2543.809-387.541c2.23,0,4.189-.1,6.131.029,2.031.138,3.079,1.36,3.208,3.387.137,2.1-.844,3.628-2.8,4.049a32.742,32.742,0,0,1-3.926.363l-.267,4.448h-2.347Zm2.61,5.337c.959,0,1.805.065,2.634-.018a1.481,1.481,0,0,0,1.442-1.565,1.547,1.547,0,0,0-1.441-1.6,19.715,19.715,0,0,0-2.635-.026Z" transform="translate(-2543.809 442.104)"/>
      <path id="Path_3966" data-name="Path 3966" d="M2627.073-387.5a11.3,11.3,0,0,1,1.349-.111,4.686,4.686,0,0,1,.908.221c0,3.113.012,6.162-.014,9.212a2.7,2.7,0,0,1-.34,1.117c-.853,1.7-3.011,2.409-5.86,1.948-1.945-.315-3.239-1.447-3.337-3.393-.143-2.894-.037-5.8-.037-8.907h2.416c0,2.04,0,3.99,0,5.94a17.39,17.39,0,0,0,.051,2.121,2.28,2.28,0,0,0,2.6,2.144c1.373-.082,2.027-.744,2.071-2.328.063-2.281.021-4.564.04-6.846A9.591,9.591,0,0,1,2627.073-387.5Z" transform="translate(-2544.923 442.105)"/>
      <path id="Path_3967" data-name="Path 3967" d="M2648.907-384.273l-2.06.632a3.238,3.238,0,0,1-.662-.61,2.64,2.64,0,0,0-3.265-1.206,2.879,2.879,0,0,0-2.032,2.882,12.459,12.459,0,0,0,.094,2.819,2.746,2.746,0,0,0,2.233,2.451,2.5,2.5,0,0,0,2.908-1.471c.146-.273.323-.531.569-.934l2.11.646c-.781,2.73-1.887,3.753-4.163,3.99-2.606.273-4.7-.708-5.728-2.836a7.608,7.608,0,0,1,.156-7.261,5.2,5.2,0,0,1,5.38-2.677A4.61,4.61,0,0,1,2648.907-384.273Z" transform="translate(-2545.193 442.108)"/>
      <path id="Path_3968" data-name="Path 3968" d="M2660.374-375.069v-10.237l-3.526-.344V-387.6c3.189-.083,6.35-.084,9.638.012v1.939l-3.465.295v9.96Z" transform="translate(-2545.469 442.105)"/>
      <path id="Path_3969" data-name="Path 3969" d="M2676.941-375.259h-2.261v-12.153h2.261Z" transform="translate(-2545.732 442.102)"/>
    </g>
  </g>
</svg>
