<svg version="1.2" xmlns="http://www.w3.org/2000/svg" viewBox="0 0 179 699" width="179" height="699">
	<title>aum-logo-half-svg</title>
	<defs>
		<clipPath clipPathUnits="userSpaceOnUse" id="cp1">
			<path d="m-116-15h295v743h-295z"/>
		</clipPath>
	</defs>
	<style>
		.s0 { fill: #000000 } 
	</style>
	<g id="Clip-Path: Mask_Group_6" clip-path="url(#cp1)">
		<g id="Mask_Group_6" style="opacity: .7">
			<g id="Group_12935">
				<g id="Group_12799">
					<path id="Path_3831" class="s0" d="m206.2 79.6l27.3 62.3h-109.4l27.4-62.3 27.3-62.2z"/>
				</g>
				<g id="Group_12800">
					<path id="Path_3832" fill-rule="evenodd" class="s0" d="m178.8 66.8l82.3 187.3h-164.6zm0 25.7l-66.4 151.3h132.9z"/>
				</g>
				<g id="Group_12801">
					<path id="Path_3833" fill-rule="evenodd" class="s0" d="m255.5 441.3l82.3 187.3h-164.6zm0 25.7l-66.4 151.3h132.9z"/>
				</g>
				<g id="Group_12802">
					<path id="Path_3834" fill-rule="evenodd" class="s0" d="m102.1 441.3l82.3 187.3h-164.6zm0 25.7l-66.4 151.3h132.9z"/>
				</g>
				<g id="Group_12803">
					<path id="Path_3835" fill-rule="evenodd" class="s0" d="m133.6 436.7c-6.4-2.7-12.2-6.5-17.1-11.4-4.8-4.9-8.7-10.7-11.4-17.1-2.6-6.4-4-13.2-4-20.1v-118.5h155.4v118.5c0 6.9-1.3 13.7-4 20.1-2.6 6.4-6.5 12.2-11.4 17.1-4.9 4.9-10.7 8.7-17.1 11.4-6.3 2.6-13.2 4-20.1 4h-50.1c-7 0-13.8-1.4-20.2-4zm-22.1-156.7v108.1c0 5.5 1.1 11 3.2 16.2 2.1 5.1 5.2 9.7 9.2 13.7 3.9 3.9 8.5 7 13.7 9.1 5.1 2.2 10.6 3.3 16.2 3.3h50.1c5.6 0 11-1.1 16.2-3.3 5.1-2.1 9.8-5.2 13.7-9.1 3.9-4 7-8.6 9.2-13.7 2.1-5.2 3.2-10.7 3.2-16.2v-108.1z"/>
				</g>
				<g id="Group_12804">
					<path id="Path_3836" class="s0" d="m116.9 559.9c2 1.4 2.6 1.6 2.6 1.8 0.2 20.8 0 41.5 0.5 62.3 0.5 22.3 10.3 40.3 32.2 46.7 14.8 4.3 31.8 5.9 47 3.6 28.6-4.2 40.7-19.4 42.8-48.3 0.9-13.4 0.5-27 0.6-40.5 0.1-7.7 0-15.4 0-23.1l3.7-0.2 58.6 124.7h-247.5c20.4-43.5 39.9-85.1 59.5-127z"/>
				</g>
			</g>
		</g>
	</g>
</svg>