<svg xmlns="http://www.w3.org/2000/svg" width="43.72" height="43.723" viewBox="0 0 43.72 43.723">
  <g id="Group_12858" data-name="Group 12858" transform="translate(-1955.273 -988.084)">
    <path id="Path_3883" data-name="Path 3883" d="M2039.19,1045.63h.6q8.854,0,17.708.008c.336,0,.554-.064.628-.411a.434.434,0,0,1,.035-.083c.137-.311.415-.646.369-.927s-.422-.487-.657-.723c-1.179-1.181-2.37-2.351-3.537-3.546a3.163,3.163,0,0,1-.812-3.317,3.115,3.115,0,0,1,2.467-2.24,3.2,3.2,0,0,1,3.044.918c.644.635,1.275,1.282,1.977,1.99v-2.854c-.026,0-.064-.018-.082-.005-.327.229-.665.393-1.042.116s-.316-.64-.231-1.031c.174-.8.32-1.6.489-2.467h-.511c-1.669,0-3.338,0-5.008,0a3.642,3.642,0,0,1-3.785-3.786q-.008-4.211,0-8.423a3.644,3.644,0,0,1,3.8-3.818c1.9,0,3.793,0,5.69,0h.5a2.006,2.006,0,0,0-2.064-1.455c-2.458-.007-4.917,0-7.375,0h-.521v-1.457h7.558a3.716,3.716,0,0,1,4.018,2.914h.471q2.982,0,5.964,0a3.643,3.643,0,0,1,3.813,3.8q.008,4.211,0,8.423a3.647,3.647,0,0,1-3.816,3.8c-1.077,0-2.154,0-3.307,0a3.178,3.178,0,0,0,.189.328c.5.65,1,1.3,1.505,1.942a7.828,7.828,0,0,1,1.781,4.954c.015,4.568.006,9.136,0,13.7,0,.679-.253.928-.939.928q-12.61,0-25.219,0a3.629,3.629,0,0,1-3.705-3.68C2039.182,1048.05,2039.19,1046.869,2039.19,1045.63Zm28.377,5.828a1.577,1.577,0,0,0,.03-.191c0-4.386.009-8.772-.012-13.158a5.639,5.639,0,0,0-1-3.213c-.688-1-1.453-1.94-2.2-2.926-.546.388-1.057.766-1.585,1.118a.622.622,0,0,0-.3.6c.014,1.457.03,2.914-.006,4.371a1.459,1.459,0,0,0,.505,1.224c.755.7,1.463,1.445,2.131,2.112l-.981,1.1c-1.233-1.237-2.442-2.451-3.652-3.664-.847-.849-1.687-1.7-2.547-2.54a1.836,1.836,0,0,0-3.107,1.438,1.867,1.867,0,0,0,.611,1.279q2.257,2.25,4.507,4.507a.8.8,0,0,1,.122,1.239c-.125.19-.26.375-.369.573a5.63,5.63,0,0,0,.006,5.766.627.627,0,0,0,.64.378c.986-.025,1.973-.009,2.959-.009Zm3.674-25.406v-.491q0-3.345,0-6.69a2.195,2.195,0,0,0-2.379-2.382q-7.1,0-14.2,0a2.192,2.192,0,0,0-2.362,2.353q0,3.322,0,6.645c0,.128.013.256.022.437.16-.11.271-.182.377-.261l4.039-3.03c.573-.43.746-.432,1.327,0,1.6,1.2,3.209,2.393,4.8,3.608a.547.547,0,0,0,.777.035c1.093-.764,2.225-1.474,3.318-2.236a.986.986,0,0,1,1.282,0C2069.2,1024.711,2070.181,1025.344,2071.242,1026.052Zm-13.7,21.066h-16.9c0,.65,0,1.271,0,1.89a2.212,2.212,0,0,0,2.448,2.449h15.175A7.34,7.34,0,0,1,2057.544,1047.118Zm-.1-23.134a.545.545,0,0,0-.118.041c-1.59,1.189-3.184,2.373-4.759,3.582a.605.605,0,0,0-.114.535,2.143,2.143,0,0,0,2.132,1.46c2.077,0,4.155,0,6.232,0,.771,0,1.047.338.9,1.083-.1.506-.195,1.013-.31,1.615,1.172-.836,2.244-1.627,3.348-2.37a2,2,0,0,1,1-.314c1.106-.039,2.214-.006,3.32-.018a2.185,2.185,0,0,0,2.031-1.423.421.421,0,0,0-.188-.6q-1.49-.961-2.949-1.968a.534.534,0,0,0-.715,0c-1.149.789-2.32,1.546-3.473,2.329a.835.835,0,0,1-1.118-.035c-.269-.222-.555-.422-.834-.631Z" transform="translate(-73.709 -21.11)"/>
    <path id="Path_3884" data-name="Path 3884" d="M1967.106,1004.121c.175.889.33,1.735.513,2.576a.8.8,0,0,1-.272.933c-.361.25-.68.108-1-.122-1.465-1.055-2.93-2.108-4.411-3.141a1.491,1.491,0,0,0-.745-.236c-.983-.049-1.982.034-2.949-.106a3.5,3.5,0,0,1-2.947-3.438q-.036-4.485,0-8.97a3.569,3.569,0,0,1,3.492-3.511q6.693-.044,13.385,0a3.566,3.566,0,0,1,3.5,3.505q.048,4.484,0,8.97a3.6,3.6,0,0,1-3.567,3.535c-1.487.023-2.975.006-4.462.006Zm-1.248,1.241c-.118-.607-.213-1.112-.313-1.615-.148-.744.128-1.081.9-1.082,1.851,0,3.7.007,5.554,0a2.163,2.163,0,0,0,2.223-2.216q.015-4.348,0-8.7a2.154,2.154,0,0,0-2.2-2.195q-6.532-.014-13.065,0a2.161,2.161,0,0,0-2.215,2.223q-.013,4.325,0,8.65a2.174,2.174,0,0,0,2.25,2.236c.834.008,1.67.017,2.5-.005a1.615,1.615,0,0,1,1.051.338C1963.613,1003.773,1964.691,1004.53,1965.858,1005.362Z" transform="translate(-0.003)"/>
    <path id="Path_3885" data-name="Path 3885" d="M1970.074,1158.782c.42.038.8.044,1.17.112a3.591,3.591,0,0,1,2.971,3.477q.036,2.275,0,4.552a3.6,3.6,0,0,1-3.557,3.544q-5.917.035-11.833,0a3.6,3.6,0,0,1-3.536-3.564q-.032-2.253,0-4.506a3.618,3.618,0,0,1,3.58-3.57c1.76-.022,3.52,0,5.279-.015a1.668,1.668,0,0,0,.766-.2c1.456-.812,2.9-1.645,4.344-2.478.33-.19.654-.348,1.011-.086s.333.635.227,1.026C1970.342,1157.636,1970.214,1158.208,1970.074,1158.782Zm-1.364-.653c-1.167.666-2.236,1.295-3.327,1.885a2.111,2.111,0,0,1-.94.25c-1.821.023-3.642,0-5.463.014a2.173,2.173,0,0,0-2.238,2.248c-.008,1.427-.01,2.853,0,4.28a2.16,2.16,0,0,0,2.184,2.208q5.827.017,11.655,0a2.155,2.155,0,0,0,2.179-2.165q.025-2.208,0-4.416a2.167,2.167,0,0,0-2.147-2.153c-.44-.011-.88,0-1.32,0-.7-.008-.994-.377-.835-1.054C1968.536,1158.889,1968.612,1158.556,1968.71,1158.13Z" transform="translate(0 -147.413)"/>
    <path id="Path_3886" data-name="Path 3886" d="M2218.742,1062.976a2.913,2.913,0,1,1-2.9-2.933A2.92,2.92,0,0,1,2218.742,1062.976Zm-1.458-.027a1.455,1.455,0,1,0-1.436,1.462A1.462,1.462,0,0,0,2217.284,1062.949Z" transform="translate(-226.309 -63.207)"/>
    <path id="Path_3887" data-name="Path 3887" d="M2129.368,1311.716h1.385v1.417h-1.385Z" transform="translate(-152.922 -284.272)"/>
    <path id="Path_3888" data-name="Path 3888" d="M1995.675,1012.844a2.555,2.555,0,0,1,3.836,3.358,3.421,3.421,0,0,0-.243.465l.093.061c.555-.277,1.107-.56,1.666-.83.687-.332,1.186-.029,1.19.728q.011,2.049,0,4.1c0,.724-.509,1.027-1.17.717-.288-.135-.571-.282-.855-.424l-.765-.386c-.154.286-.235.632-.452.786a1.607,1.607,0,0,1-.865.156c-1.669.013-3.338.006-5.007.006-.889,0-1.082-.2-1.082-1.1,0-1.229.005-2.458-.006-3.687a.92.92,0,0,0-.138-.5,2.55,2.55,0,0,1,3.662-3.53C1995.574,1012.786,1995.615,1012.806,1995.675,1012.844Zm2.141,7.258v-2.858H1993.5v2.858Zm-2.883-5.436a1.09,1.09,0,1,0-1.11,1.08A1.1,1.1,0,0,0,1994.933,1014.666Zm1.464-.073a1.09,1.09,0,1,0,1.164-1.025A1.1,1.1,0,0,0,1996.4,1014.593Zm4.343,3.083c-.45.223-.858.413-1.253.626a.436.436,0,0,0-.033.707c.406.223.83.414,1.287.638Z" transform="translate(-31.64 -21.1)"/>
    <path id="Path_3889" data-name="Path 3889" d="M1979.513,1233.914h13.056v1.412h-13.056Z" transform="translate(-21.292 -215.932)"/>
    <path id="Path_3890" data-name="Path 3890" d="M1987.455,1211.468h-7.961v-1.4h7.961Z" transform="translate(-21.275 -194.985)"/>
    <path id="Path_3891" data-name="Path 3891" d="M2057.374,1209.954h3.587v1.411h-3.587Z" transform="translate(-89.684 -194.886)"/>
  </g>
</svg>
