<svg xmlns="http://www.w3.org/2000/svg" width="59.624" height="45.361" viewBox="0 0 59.624 45.361">
  <g id="XMLID_146_" transform="translate(-2 -123)">
    <path id="XMLID_211_" d="M70.994,207.867a5.627,5.627,0,0,1-4.08,1.765h-.07a5.588,5.588,0,0,1-4.092-1.871L42,187.7v30.981c0,1.356.7,2.139,1.111,2.139h48.05c.409,0,1.111-.772,1.111-2.139V188.39Z" transform="translate(-35.324 -57.136)" fill="none"/>
    <path id="XMLID_415_" d="M93.594,182.458l.07.082a.937.937,0,0,0,.713.339.958.958,0,0,0,.725-.316l.07-.082.082-.07L116.7,162.805l-22.119.035L73.1,162.7Z" transform="translate(-62.788 -35.059)" fill="none"/>
    <path id="XMLID_426_" d="M55.8,123.058l-24,.058L7.8,123H7.787C4.56,123,2,126.028,2,129.816v31.73c0,3.788,2.56,6.816,5.787,6.816h48.05c3.227,0,5.787-3.028,5.787-6.816v-31.73C61.624,126.028,59.087,123.058,55.8,123.058Zm-1.882,4.676L32.479,147.341l-.082.07-.07.082a.958.958,0,0,1-.725.316.922.922,0,0,1-.713-.339l-.07-.082L10.324,127.641l21.476.14,22.119-.047Zm1.917,35.95H7.787c-.409,0-1.111-.772-1.111-2.139V130.564L27.44,150.626a5.639,5.639,0,0,0,4.115,1.871h.07a5.582,5.582,0,0,0,4.068-1.765l21.278-19.477v30.292C56.948,162.913,56.247,163.685,55.837,163.685Z" fill="#fff"/>
  </g>
</svg>
