<svg xmlns="http://www.w3.org/2000/svg" width="47.012" height="51.133" viewBox="0 0 47.012 51.133">
  <g id="Group_12859" data-name="Group 12859" transform="translate(-2463.61 -334.054)">
    <path id="Path_3892" data-name="Path 3892" d="M2710.14,334.054a1.21,1.21,0,0,1,.522,1.192c-.034.408,0,.822-.011,1.233a.822.822,0,1,1-1.641,0,8.083,8.083,0,0,1,.019-1.538,3.028,3.028,0,0,1,.492-.886Z" transform="translate(-211.58)"/>
    <path id="Path_3893" data-name="Path 3893" d="M2474.335,375.162c0-.757-.005-1.563,0-2.369.006-.676.3-.974.976-.978q1.495-.011,2.989,0c.674,0,.973.3.979.976.008.806,0,1.612,0,2.374l3.271,1.3c.532-.539,1.13-1.15,1.735-1.755.578-.578.951-.578,1.53,0q1.079,1.071,2.15,2.15a.869.869,0,0,1,0,1.458c-.6.608-1.221,1.2-1.8,1.771l1.3,3.26c2.425.078,4.971-.238,7.564.727a10.835,10.835,0,0,0-.279-1.855c-.6-1.753-1.225-3.5-1.913-5.215a4.834,4.834,0,0,1,.675-4.722,4.914,4.914,0,0,1,4.169-2.082,9.127,9.127,0,0,1,2.693.283c2.791.759,3.66,3.217,3.621,5.4a3.7,3.7,0,0,1-.348,1.124c-.609,1.658-1.243,3.307-1.829,4.973a5.354,5.354,0,0,0-.265,1.444c-.043.736-.007,1.477-.012,2.215,0,.711-.3,1-.994,1.015-.287,0-.574,0-.882,0,4.989,5.26,5.691,11,2.057,17.5a1.948,1.948,0,0,1,.495.3q3.766,3.741,7.516,7.5a2.5,2.5,0,0,1,.821,2.418,2.451,2.451,0,0,1-4.074,1.313c-.611-.553-1.176-1.156-1.759-1.74-2.149-2.15-4.3-4.3-6.467-6.473-.158.091-.305.169-.446.257a13.176,13.176,0,0,1-19.6-7.348c-.127-.425-.3-.568-.735-.545-.72.038-1.443.015-2.164.009-.678-.006-.978-.3-.985-.971-.007-.806,0-1.613,0-2.38l-3.26-1.3c-.523.526-1.112,1.122-1.7,1.713-.629.628-.983.63-1.6.01q-1.059-1.055-2.113-2.114a.868.868,0,0,1,0-1.457c.606-.607,1.226-1.2,1.8-1.766l-1.315-3.281c-.452,0-1,.005-1.542,0-.676-.008-.976-.3-.981-.975q-.011-1.495,0-2.989c0-.677.3-.971.973-.982.515-.009,1.03-.01,1.545-.015.016,0,.032-.01.013,0l1.294-3.244c-.527-.524-1.122-1.113-1.715-1.706-.626-.626-.628-.98-.007-1.6q1.054-1.06,2.115-2.113a.869.869,0,0,1,1.457,0c.608.6,1.2,1.222,1.772,1.8Zm-5.723,20.219c.574-.589,1.12-1.159,1.676-1.719.494-.5.785-.537,1.359-.168a10,10,0,0,0,3.414,1.383c.765.159.922.361.923,1.162,0,.714,0,1.428,0,2.139h1.752a13.415,13.415,0,0,1,.982-6.885,5.785,5.785,0,0,1-4.795-.469,5.522,5.522,0,0,1-2.777-3.9,5.752,5.752,0,0,1,4.406-6.731,5.552,5.552,0,0,1,4.258.713,5.791,5.791,0,0,1,2.793,5.225l3.268-1.905a9.575,9.575,0,0,0-1.364-3.5c-.4-.643-.376-.908.16-1.44.558-.553,1.123-1.1,1.621-1.584l-1.344-1.352c-.5.513-1.033,1.071-1.576,1.618s-.808.579-1.439.177a9.839,9.839,0,0,0-3.32-1.343c-.833-.173-.974-.356-.975-1.225q0-1.045,0-2.088h-1.65c0,.758,0,1.492,0,2.226,0,.687-.194.927-.858,1.061a10,10,0,0,0-3.423,1.359c-.639.406-.91.376-1.442-.158-.554-.557-1.1-1.121-1.61-1.639l-1.337,1.351c.535.521,1.106,1.066,1.665,1.623.5.494.537.788.168,1.36a9.963,9.963,0,0,0-1.4,3.514.855.855,0,0,1-.989.821c-.49.006-.981,0-1.468,0V386.6a.427.427,0,0,0,.115.047c.429.005.859.006,1.288.01.687.006.925.194,1.059.86a9.985,9.985,0,0,0,1.36,3.423c.406.639.375.909-.159,1.442-.556.554-1.121,1.1-1.654,1.622Zm22.22,12.715a11.544,11.544,0,1,0-11.549-11.628A11.558,11.558,0,0,0,2490.832,408.1Zm7.39-26.387c.481,0,.963-.022,1.443.007a.564.564,0,0,0,.665-.446c.587-1.629,1.212-3.245,1.82-4.867a3.39,3.39,0,0,0-1.534-4.068,5.22,5.22,0,0,0-4.722,0,3.469,3.469,0,0,0-1.674,3.675c.655,1.805,1.335,3.6,2.026,5.394a.6.6,0,0,0,.432.3C2497.189,381.732,2497.706,381.709,2498.222,381.709Zm-21.4,0a4.123,4.123,0,1,0,4.105,4.1A4.128,4.128,0,0,0,2476.826,381.71Zm22.778,24.762c.049.056.1.122.158.181q3.84,3.843,7.684,7.682c.119.119.271.287.409.288.286,0,.671,0,.834-.17a1.311,1.311,0,0,0,.206-.871c-.005-.165-.213-.339-.356-.482q-3.746-3.755-7.5-7.5c-.1-.1-.22-.192-.265-.232Zm-3-23.089a4.787,4.787,0,0,1-.007.8.631.631,0,0,0,.637.8c.879.06,1.765.019,2.643.019v-1.615Z" transform="translate(0 -31.161)"/>
    <path id="Path_3894" data-name="Path 3894" d="M2674.316,340.079a2.088,2.088,0,0,1,.55.483,15.39,15.39,0,0,1,.814,1.6.816.816,0,1,1-1.46.729c-.292-.544-.574-1.094-.822-1.658S2673.543,340.073,2674.316,340.079Z" transform="translate(-180.832 -5.195)"/>
    <path id="Path_3895" data-name="Path 3895" d="M2740.564,340.049c.751,0,1.161.568.93,1.11a19.028,19.028,0,0,1-.888,1.788.811.811,0,0,1-1.442-.735,16.874,16.874,0,0,1,.875-1.736A1.677,1.677,0,0,1,2740.564,340.049Z" transform="translate(-237.539 -5.169)"/>
    <path id="Path_3896" data-name="Path 3896" d="M2650.031,363.332a2.8,2.8,0,0,1,.386.125c.54.262,1.081.522,1.609.807a.817.817,0,1,1-.734,1.458q-.839-.39-1.655-.83a.7.7,0,0,1-.389-.907,3.134,3.134,0,0,1,.663-.735Z" transform="translate(-160.023 -25.174)"/>
    <path id="Path_3897" data-name="Path 3897" d="M2759.941,362.848a3.832,3.832,0,0,1,.714.7.653.653,0,0,1-.246.9,11.774,11.774,0,0,1-1.969.97.985.985,0,0,1-.852-.342c-.144-.195-.142-.762,0-.863C2758.311,363.721,2759.1,363.325,2759.941,362.848Z" transform="translate(-253.4 -24.829)"/>
    <path id="Path_3898" data-name="Path 3898" d="M2599.251,509.543a9.894,9.894,0,1,1,9.93-9.961A9.906,9.906,0,0,1,2599.251,509.543Zm8.283-9.914a8.246,8.246,0,1,0-8.25,8.265A8.265,8.265,0,0,0,2607.534,499.628Z" transform="translate(-108.459 -134.257)"/>
    <path id="Path_3899" data-name="Path 3899" d="M2619.684,563.057a6.644,6.644,0,0,1-6.321-6.341c-.014-.66.263-1.042.775-1.072s.844.346.877,1.031a4.963,4.963,0,0,0,4.75,4.731c.66.033,1.022.334,1.013.844C2620.768,562.778,2620.367,563.074,2619.684,563.057Z" transform="translate(-129.129 -191.071)"/>
  </g>
</svg>
