<svg xmlns="http://www.w3.org/2000/svg" width="35.526" height="35.551" viewBox="0 0 35.526 35.551">
  <g id="noun-call-1471200" transform="translate(-76.452 -33.57)">
    <path id="Path_3974" data-name="Path 3974" d="M114.616,47.473a2.537,2.537,0,0,0,2.323-.227,2.435,2.435,0,0,0,1.3-1.995c.175-1.972-.719-4.3-1.717-6.35a26.367,26.367,0,0,0-1.515-2.714,5.925,5.925,0,0,0-1.288-1.6c-.019-.014-.249-.207-.53-.4a3.341,3.341,0,0,0-1.111-.53,2.56,2.56,0,0,0-.568-.076,2.514,2.514,0,0,0-.252,0c-3.088.824-6.237,4.343-7.372,7.31a1.978,1.978,0,0,0-.127.921c.723,5.967,4.634,12.371,9.783,17.521s11.554,9.06,17.521,9.783a1.912,1.912,0,0,0,.909-.139,6.9,6.9,0,0,0,.947-.391c2.122-1.028,6.91-5.222,6.3-7.788a3.4,3.4,0,0,0-.53-1.123c-.2-.282-.4-.513-.416-.53a5.815,5.815,0,0,0-1.591-1.275,26.249,26.249,0,0,0-2.714-1.527c-2.046-1-4.39-1.892-6.362-1.717a2.435,2.435,0,0,0-1.995,1.3,2.521,2.521,0,0,0-.177,2.424,1.642,1.642,0,0,1-.291.252,3.825,3.825,0,0,1-1.729.581,6.389,6.389,0,0,1-2.361-1.136,27.791,27.791,0,0,1-3.585-3.08,25.858,25.858,0,0,1-2.954-3.484,7.379,7.379,0,0,1-.745-1.338,1.7,1.7,0,0,1-.114-.48,16.2,16.2,0,0,1,.821-1.957c.052-.09.1-.167.14-.227Z" transform="translate(-27.294)" fill="#fff"/>
  </g>
</svg>
