<svg xmlns="http://www.w3.org/2000/svg" xmlns:xlink="http://www.w3.org/1999/xlink" width="1766" height="877" viewBox="0 0 1766 877">
  <defs>
    <clipPath id="clip-path">
      <rect id="Rectangle_174" data-name="Rectangle 174" width="1766" height="877" rx="59" transform="translate(-709 7441)"/>
    </clipPath>
  </defs>
  <g id="Mask_Group_2" data-name="Mask Group 2" transform="translate(709 -7441)" opacity="0.297" clip-path="url(#clip-path)">
    <g id="Group_12856" data-name="Group 12856" transform="translate(-167.294 7151.899)" opacity="0.277">
      <g id="Group_12855" data-name="Group 12855" transform="translate(-578.398 52.551)">
        <g id="Group_12809" data-name="Group 12809" transform="translate(1643.216 1347.908)">
          <path id="Path_3837" data-name="Path 3837" d="M130.988,405.5c-55.352-21.622-108.307-32.135-161.9-32.135S-137.446,383.874-192.8,405.5l-2.341-5.99c56.115-21.922,109.838-32.577,164.234-32.577s108.127,10.655,164.238,32.577Z" transform="translate(195.143 -366.93)" fill="#fff"/>
        </g>
        <g id="Group_12810" data-name="Group 12810" transform="translate(329.561 1347.908)">
          <path id="Path_3838" data-name="Path 3838" d="M-175.4,405.5c-55.356-21.622-108.312-32.135-161.9-32.135s-106.541,10.513-161.9,32.135l-2.341-5.99c56.115-21.922,109.842-32.577,164.238-32.577s108.123,10.655,164.238,32.577Z" transform="translate(501.533 -366.93)" fill="#fff"/>
        </g>
        <g id="Group_12811" data-name="Group 12811" transform="translate(1552.226 1304.771)">
          <path id="Path_3839" data-name="Path 3839" d="M291,438.4c-67.893-37.134-150.942-75.1-252.141-75.1s-184.244,37.966-252.137,75.1l-3.087-5.647c68.6-37.524,152.58-75.885,255.224-75.885s186.623,38.361,255.228,75.885Z" transform="translate(216.365 -356.869)" fill="#fff"/>
        </g>
        <g id="Group_12812" data-name="Group 12812" transform="translate(238.575 1304.771)">
          <path id="Path_3840" data-name="Path 3840" d="M-15.39,438.4c-67.893-37.134-150.942-75.1-252.141-75.1s-184.248,37.966-252.141,75.1l-3.083-5.647c68.6-37.524,152.576-75.885,255.224-75.885S-80.911,395.229-12.3,432.754Z" transform="translate(522.754 -356.869)" fill="#fff"/>
        </g>
        <g id="Group_12813" data-name="Group 12813" transform="translate(1477.4 1261.63)">
          <path id="Path_3841" data-name="Path 3841" d="M423.01,471.424c-98.034-58.1-199.4-118.186-326.778-118.186S-132.5,413.319-230.537,471.424l-3.28-5.535c98.78-58.542,200.922-119.082,330.049-119.082s231.278,60.54,330.054,119.082Z" transform="translate(233.817 -346.807)" fill="#fff"/>
        </g>
        <g id="Group_12814" data-name="Group 12814" transform="translate(163.758 1261.63)">
          <path id="Path_3842" data-name="Path 3842" d="M116.611,471.424C18.559,413.311-82.8,353.238-210.163,353.238S-438.9,413.315-536.928,471.415l-3.276-5.531c98.772-58.542,200.909-119.077,330.041-119.077S21.093,407.338,119.865,465.876Z" transform="translate(540.204 -346.807)" fill="#fff"/>
        </g>
        <g id="Group_12815" data-name="Group 12815" transform="translate(1402.771 1218.485)">
          <path id="Path_3843" data-name="Path 3843" d="M555.059,504.562c-25.241-13.806-50.438-28.744-74.813-43.192-98.039-58.1-199.413-118.194-326.791-118.194s-228.739,60.085-326.774,118.19c-24.375,14.449-49.577,29.387-74.817,43.2l-3.087-5.647c25.142-13.754,50.3-28.662,74.629-43.085,98.776-58.546,200.918-119.086,330.049-119.086s231.286,60.544,330.071,119.09c24.323,14.423,49.478,29.331,74.62,43.081Z" transform="translate(251.223 -336.744)" fill="#fff"/>
        </g>
        <g id="Group_12816" data-name="Group 12816" transform="translate(89.108 1218.485)">
          <path id="Path_3844" data-name="Path 3844" d="M248.676,504.562c-25.245-13.81-50.456-28.748-74.83-43.2-98.034-58.1-199.4-118.186-326.769-118.186S-381.668,403.261-479.7,461.361c-24.379,14.453-49.585,29.391-74.83,43.2l-3.087-5.647c25.151-13.754,50.306-28.662,74.637-43.085,98.78-58.546,200.922-119.086,330.054-119.086s231.269,60.54,330.049,119.082c24.327,14.427,49.491,29.335,74.637,43.09Z" transform="translate(557.615 -336.744)" fill="#fff"/>
        </g>
        <g id="Group_12817" data-name="Group 12817" transform="translate(1312.519 1175.352)">
          <path id="Path_3845" data-name="Path 3845" d="M715.247,537.806c-58.246-22.758-112.921-55.163-165.794-86.5-98.039-58.109-199.413-118.19-326.8-118.19S-6.082,393.192-104.116,451.3c-52.878,31.346-107.561,63.751-165.816,86.509l-2.341-5.99c57.77-22.565,112.217-54.842,164.881-86.051C-8.616,387.22,93.526,326.684,222.658,326.684s231.291,60.54,330.075,119.09c52.651,31.2,107.1,63.477,164.855,86.042Z" transform="translate(272.273 -326.684)" fill="#fff"/>
        </g>
        <g id="Group_12818" data-name="Group 12818" transform="translate(0 1175.352)">
          <path id="Path_3846" data-name="Path 3846" d="M407.99,537.806c-58.254-22.758-112.933-55.163-165.816-86.505C144.144,393.2,42.774,333.115-84.6,333.115S-313.335,393.192-411.364,451.3c-52.539,31.136-106.863,63.331-164.684,86.059l-2.35-5.985c57.337-22.535,111.433-54.6,163.753-85.609C-315.869,387.22-213.731,326.684-84.6,326.684s231.273,60.54,330.058,119.082c52.655,31.209,107.107,63.485,164.873,86.051Z" transform="translate(578.398 -326.684)" fill="#fff"/>
        </g>
        <g id="Group_12819" data-name="Group 12819" transform="translate(0 1132.207)">
          <path id="Path_3847" data-name="Path 3847" d="M572.228,560.324c-129.136,0-231.278-60.54-330.054-119.086-98.03-58.1-199.4-118.186-326.774-118.186s-228.74,60.081-326.769,118.181c-52.535,31.14-106.858,63.34-164.68,86.068l-2.35-5.99c57.337-22.539,111.433-54.6,163.749-85.609,98.776-58.542,200.918-119.082,330.05-119.082S146.674,377.161,245.454,435.7c98.03,58.1,199.4,118.19,326.774,118.19S800.968,493.807,899,435.7c98.776-58.542,200.918-119.082,330.049-119.082v6.431c-127.369,0-228.74,60.085-326.774,118.186C803.5,499.784,701.364,560.324,572.228,560.324Z" transform="translate(578.398 -316.621)" fill="#fff"/>
        </g>
        <g id="Group_12820" data-name="Group 12820" transform="translate(0 1089.066)">
          <path id="Path_3848" data-name="Path 3848" d="M572.228,550.262c-129.136,0-231.278-60.54-330.054-119.086C144.144,373.071,42.774,312.99-84.6,312.99s-228.74,60.081-326.769,118.186c-52.535,31.14-106.858,63.335-164.68,86.063l-2.35-5.985c57.337-22.539,111.433-54.606,163.749-85.609C-315.873,367.1-213.731,306.559-84.6,306.559S146.674,367.1,245.454,425.645c98.03,58.1,199.4,118.185,326.774,118.185S800.968,483.75,899,425.645c98.776-58.546,200.918-119.086,330.049-119.086v6.431c-127.369,0-228.74,60.081-326.774,118.186C803.5,489.722,701.364,550.262,572.228,550.262Z" transform="translate(578.398 -306.559)" fill="#fff"/>
        </g>
        <g id="Group_12821" data-name="Group 12821" transform="translate(0 1045.929)">
          <path id="Path_3849" data-name="Path 3849" d="M572.228,540.2c-129.136,0-231.278-60.54-330.054-119.086-98.03-58.1-199.4-118.186-326.774-118.186s-228.74,60.081-326.765,118.181c-52.539,31.136-106.863,63.335-164.684,86.064l-2.35-5.99c57.337-22.535,111.433-54.6,163.753-85.609C-315.869,357.034-213.731,296.5-84.6,296.5s231.273,60.54,330.054,119.082c98.03,58.1,199.4,118.19,326.774,118.19S800.968,473.684,899,415.58C997.778,357.038,1099.92,296.5,1229.051,296.5v6.431c-127.369,0-228.74,60.085-326.774,118.186C803.5,479.661,701.364,540.2,572.228,540.2Z" transform="translate(578.398 -296.498)" fill="#fff"/>
        </g>
        <g id="Group_12822" data-name="Group 12822" transform="translate(0 1002.784)">
          <path id="Path_3850" data-name="Path 3850" d="M572.228,530.138c-129.136,0-231.278-60.54-330.054-119.082-98.03-58.1-199.4-118.19-326.774-118.19s-228.74,60.081-326.769,118.186c-52.535,31.14-106.858,63.335-164.68,86.064l-2.35-5.985c57.337-22.539,111.433-54.6,163.749-85.609,98.776-58.542,200.918-119.086,330.05-119.086s231.273,60.544,330.054,119.086c98.03,58.1,199.4,118.186,326.774,118.186S800.968,463.625,899,405.521c98.776-58.542,200.918-119.086,330.049-119.086v6.431c-127.369,0-228.74,60.085-326.774,118.19C803.5,469.6,701.364,530.138,572.228,530.138Z" transform="translate(578.398 -286.435)" fill="#fff"/>
        </g>
        <g id="Group_12823" data-name="Group 12823" transform="translate(0 959.647)">
          <path id="Path_3851" data-name="Path 3851" d="M572.228,520.077c-129.136,0-231.278-60.54-330.054-119.086-98.03-58.1-199.4-118.186-326.774-118.186s-228.735,60.085-326.765,118.181c-52.535,31.14-106.863,63.34-164.684,86.068l-2.35-5.99c57.337-22.535,111.437-54.6,163.753-85.609C-315.869,336.914-213.731,276.374-84.6,276.374s231.273,60.54,330.054,119.086c98.03,58.1,199.4,118.186,326.774,118.186S800.968,453.565,899,395.46c98.776-58.546,200.918-119.086,330.049-119.086v6.431c-127.369,0-228.74,60.085-326.774,118.186C803.5,459.537,701.364,520.077,572.228,520.077Z" transform="translate(578.398 -276.374)" fill="#fff"/>
        </g>
        <g id="Group_12824" data-name="Group 12824" transform="translate(0 916.506)">
          <path id="Path_3852" data-name="Path 3852" d="M572.228,510.015c-129.136,0-231.278-60.54-330.054-119.082-98.03-58.1-199.4-118.19-326.774-118.19s-228.74,60.081-326.769,118.186c-52.535,31.14-106.858,63.335-164.68,86.063l-2.35-5.986c57.337-22.539,111.433-54.6,163.749-85.609,98.776-58.542,200.918-119.086,330.05-119.086S146.674,326.856,245.454,385.4c98.03,58.1,199.4,118.186,326.774,118.186S800.968,443.5,899,385.4c98.776-58.542,200.918-119.086,330.049-119.086v6.431c-127.369,0-228.74,60.085-326.774,118.19C803.5,449.475,701.364,510.015,572.228,510.015Z" transform="translate(578.398 -266.312)" fill="#fff"/>
        </g>
        <g id="Group_12825" data-name="Group 12825" transform="translate(0 873.365)">
          <path id="Path_3853" data-name="Path 3853" d="M572.228,499.953c-129.136,0-231.278-60.54-330.054-119.086-98.03-58.1-199.4-118.186-326.774-118.186s-228.735,60.081-326.765,118.181C-463.9,412-518.227,444.2-576.048,466.93l-2.35-5.99c57.337-22.535,111.437-54.6,163.753-85.609C-315.869,316.79-213.731,256.25-84.6,256.25s231.273,60.54,330.054,119.086c98.03,58.1,199.4,118.186,326.774,118.186S800.968,433.441,899,375.336C997.778,316.79,1099.92,256.25,1229.051,256.25v6.431c-127.369,0-228.74,60.085-326.774,118.186C803.5,439.413,701.364,499.953,572.228,499.953Z" transform="translate(578.398 -256.25)" fill="#fff"/>
        </g>
        <g id="Group_12826" data-name="Group 12826" transform="translate(0 830.228)">
          <path id="Path_3854" data-name="Path 3854" d="M572.228,489.888c-129.136,0-231.278-60.54-330.054-119.082C144.144,312.7,42.774,252.62-84.6,252.62S-313.339,312.7-411.369,370.8c-52.535,31.14-106.858,63.335-164.68,86.064l-2.35-5.985c57.337-22.539,111.433-54.6,163.749-85.609,98.776-58.542,200.918-119.082,330.05-119.082s231.273,60.54,330.054,119.082c98.03,58.109,199.4,118.186,326.774,118.186S800.968,423.379,899,365.271c98.776-58.542,200.918-119.082,330.049-119.082v6.431c-127.369,0-228.74,60.081-326.774,118.186C803.5,429.348,701.364,489.888,572.228,489.888Z" transform="translate(578.398 -246.189)" fill="#fff"/>
        </g>
        <g id="Group_12827" data-name="Group 12827" transform="translate(0 787.087)">
          <path id="Path_3855" data-name="Path 3855" d="M572.228,479.83c-129.136,0-231.278-60.54-330.054-119.086-98.03-58.1-199.4-118.186-326.774-118.186s-228.74,60.081-326.769,118.186c-52.535,31.136-106.858,63.335-164.68,86.064l-2.35-5.99c57.337-22.535,111.433-54.6,163.749-85.609,98.776-58.542,200.918-119.082,330.05-119.082s231.273,60.54,330.054,119.086c98.03,58.1,199.4,118.186,326.774,118.186S800.968,413.318,899,355.213c98.776-58.546,200.918-119.086,330.049-119.086v6.431c-127.369,0-228.74,60.085-326.774,118.186C803.5,419.29,701.364,479.83,572.228,479.83Z" transform="translate(578.398 -236.127)" fill="#fff"/>
        </g>
        <g id="Group_12828" data-name="Group 12828" transform="translate(0 743.946)">
          <path id="Path_3856" data-name="Path 3856" d="M572.228,469.768c-129.136,0-231.278-60.536-330.054-119.086C144.144,292.582,42.774,232.5-84.6,232.5s-228.74,60.081-326.769,118.186c-52.535,31.136-106.858,63.335-164.68,86.063l-2.35-5.985c57.337-22.54,111.433-54.606,163.749-85.613C-315.873,286.6-213.731,226.065-84.6,226.065S146.674,286.6,245.454,345.151c98.03,58.1,199.4,118.186,326.774,118.186S800.968,403.255,899,345.151c98.776-58.546,200.918-119.086,330.049-119.086V232.5c-127.369,0-228.74,60.085-326.774,118.186C803.5,409.232,701.364,469.768,572.228,469.768Z" transform="translate(578.398 -226.065)" fill="#fff"/>
        </g>
        <g id="Group_12829" data-name="Group 12829" transform="translate(0 700.805)">
          <path id="Path_3857" data-name="Path 3857" d="M572.228,459.71c-129.136,0-231.278-60.54-330.054-119.086-98.03-58.1-199.4-118.19-326.774-118.19S-313.339,282.52-411.369,340.62c-52.535,31.136-106.858,63.335-164.68,86.064l-2.35-5.985c57.337-22.539,111.433-54.6,163.753-85.609C-315.869,276.543-213.731,216-84.6,216s231.273,60.54,330.054,119.086c98.03,58.1,199.4,118.19,326.774,118.19S800.968,393.193,899,335.089C997.778,276.543,1099.92,216,1229.051,216v6.431c-127.369,0-228.74,60.085-326.774,118.19C803.5,399.17,701.364,459.71,572.228,459.71Z" transform="translate(578.398 -216.003)" fill="#fff"/>
        </g>
        <g id="Group_12830" data-name="Group 12830" transform="translate(0 657.668)">
          <path id="Path_3858" data-name="Path 3858" d="M572.228,449.641c-129.136,0-231.278-60.536-330.054-119.082-98.03-58.1-199.4-118.186-326.774-118.186s-228.74,60.081-326.769,118.181c-52.535,31.136-106.858,63.335-164.68,86.063l-2.35-5.985c57.337-22.54,111.433-54.6,163.749-85.609,98.776-58.546,200.918-119.082,330.05-119.082s231.273,60.536,330.054,119.082c98.03,58.1,199.4,118.186,326.774,118.186S800.968,383.128,899,325.024c98.776-58.546,200.918-119.082,330.049-119.082v6.431c-127.369,0-228.74,60.081-326.774,118.186C803.5,389.105,701.364,449.641,572.228,449.641Z" transform="translate(578.398 -205.942)" fill="#fff"/>
        </g>
        <g id="Group_12831" data-name="Group 12831" transform="translate(0 614.527)">
          <path id="Path_3859" data-name="Path 3859" d="M572.228,439.583c-129.136,0-231.278-60.536-330.054-119.086-98.03-58.1-199.4-118.186-326.774-118.186S-313.339,262.392-411.369,320.5c-52.535,31.136-106.858,63.335-164.68,86.059l-2.35-5.981c57.337-22.539,111.433-54.606,163.749-85.613C-315.873,256.42-213.731,195.88-84.6,195.88s231.273,60.54,330.054,119.086c98.03,58.1,199.4,118.186,326.774,118.186S800.968,373.071,899,314.966C997.778,256.42,1099.92,195.88,1229.051,195.88v6.431c-127.369,0-228.74,60.081-326.774,118.186C803.5,379.047,701.364,439.583,572.228,439.583Z" transform="translate(578.398 -195.88)" fill="#fff"/>
        </g>
        <g id="Group_12832" data-name="Group 12832" transform="translate(0 571.386)">
          <path id="Path_3860" data-name="Path 3860" d="M572.228,429.521c-129.136,0-231.278-60.54-330.054-119.086-98.03-58.1-199.4-118.186-326.774-118.186s-228.74,60.081-326.769,118.186c-52.535,31.136-106.858,63.335-164.68,86.059l-2.35-5.985c57.337-22.535,111.433-54.6,163.749-85.6,98.776-58.546,200.918-119.086,330.05-119.086S146.674,246.358,245.454,304.9c98.03,58.1,199.4,118.186,326.774,118.186S800.968,363.009,899,304.9c98.776-58.546,200.918-119.086,330.049-119.086v6.431c-127.369,0-228.74,60.081-326.774,118.186C803.5,368.981,701.364,429.521,572.228,429.521Z" transform="translate(578.398 -185.818)" fill="#fff"/>
        </g>
        <g id="Group_12833" data-name="Group 12833" transform="translate(0 528.245)">
          <path id="Path_3861" data-name="Path 3861" d="M572.228,419.459c-129.136,0-231.278-60.54-330.054-119.086-98.03-58.1-199.4-118.186-326.774-118.186s-228.74,60.081-326.769,118.186c-52.535,31.14-106.858,63.335-164.68,86.063l-2.35-5.985c57.337-22.535,111.433-54.6,163.749-85.609C-315.873,236.3-213.731,175.756-84.6,175.756S146.674,236.3,245.454,294.842c98.03,58.1,199.4,118.186,326.774,118.186S800.968,352.947,899,294.842c98.776-58.546,200.918-119.086,330.049-119.086v6.431c-127.369,0-228.74,60.081-326.774,118.186C803.5,358.919,701.364,419.459,572.228,419.459Z" transform="translate(578.398 -175.756)" fill="#fff"/>
        </g>
        <g id="Group_12834" data-name="Group 12834" transform="translate(0 485.108)">
          <path id="Path_3862" data-name="Path 3862" d="M572.228,409.4c-129.136,0-231.278-60.54-330.054-119.086-98.03-58.1-199.4-118.186-326.774-118.186s-228.74,60.081-326.769,118.186c-52.535,31.132-106.858,63.331-164.68,86.059l-2.35-5.99c57.337-22.535,111.433-54.6,163.749-85.6C-315.873,226.235-213.731,165.7-84.6,165.7s231.273,60.54,330.054,119.086c98.03,58.1,199.4,118.186,326.774,118.186S800.968,342.881,899,284.781C997.778,226.235,1099.92,165.7,1229.051,165.7v6.431c-127.369,0-228.74,60.081-326.774,118.186C803.5,348.858,701.364,409.4,572.228,409.4Z" transform="translate(578.398 -165.695)" fill="#fff"/>
        </g>
        <g id="Group_12835" data-name="Group 12835" transform="translate(0 441.967)">
          <path id="Path_3863" data-name="Path 3863" d="M572.228,399.336c-129.136,0-231.278-60.54-330.054-119.086-98.03-58.1-199.4-118.186-326.774-118.186s-228.74,60.081-326.769,118.186c-52.535,31.136-106.858,63.335-164.68,86.059l-2.35-5.985c57.337-22.535,111.433-54.6,163.749-85.609,98.776-58.542,200.918-119.082,330.05-119.082s231.273,60.54,330.054,119.086c98.03,58.1,199.4,118.186,326.774,118.186S800.968,332.824,899,274.719c98.776-58.546,200.918-119.086,330.049-119.086v6.431c-127.369,0-228.74,60.081-326.774,118.186C803.5,338.8,701.364,399.336,572.228,399.336Z" transform="translate(578.398 -155.633)" fill="#fff"/>
        </g>
        <g id="Group_12836" data-name="Group 12836" transform="translate(0 398.826)">
          <path id="Path_3864" data-name="Path 3864" d="M572.228,389.274c-129.136,0-231.278-60.54-330.054-119.086C144.144,212.083,42.774,152-84.6,152s-228.74,60.081-326.769,118.186c-52.535,31.136-106.858,63.335-164.68,86.059l-2.35-5.985c57.337-22.535,111.433-54.6,163.749-85.6,98.776-58.546,200.918-119.086,330.05-119.086s231.273,60.54,330.054,119.086c98.03,58.1,199.4,118.186,326.774,118.186S800.968,322.762,899,264.657c98.776-58.546,200.918-119.086,330.049-119.086V152c-127.369,0-228.74,60.081-326.774,118.186C803.5,328.734,701.364,389.274,572.228,389.274Z" transform="translate(578.398 -145.571)" fill="#fff"/>
        </g>
        <g id="Group_12837" data-name="Group 12837" transform="translate(0 355.689)">
          <path id="Path_3865" data-name="Path 3865" d="M572.228,379.213c-129.136,0-231.278-60.54-330.054-119.086-98.03-58.1-199.4-118.186-326.774-118.186s-228.735,60.077-326.765,118.181c-52.535,31.136-106.863,63.335-164.684,86.059l-2.35-5.985c57.337-22.535,111.437-54.6,163.758-85.609C-315.869,196.046-213.731,135.51-84.6,135.51S146.674,196.046,245.454,254.6c98.03,58.1,199.4,118.186,326.774,118.186S800.968,312.7,899,254.6c98.776-58.551,200.918-119.086,330.049-119.086v6.431c-127.369,0-228.74,60.081-326.774,118.186C803.5,318.673,701.364,379.213,572.228,379.213Z" transform="translate(578.398 -135.51)" fill="#fff"/>
        </g>
        <g id="Group_12838" data-name="Group 12838" transform="translate(0 312.548)">
          <path id="Path_3866" data-name="Path 3866" d="M572.228,369.151c-129.136,0-231.278-60.54-330.054-119.086-98.03-58.1-199.4-118.186-326.774-118.186s-228.74,60.081-326.774,118.186C-463.908,281.2-518.227,313.4-576.048,336.124l-2.35-5.985c57.337-22.535,111.433-54.6,163.749-85.6,98.776-58.546,200.913-119.086,330.05-119.086s231.273,60.54,330.054,119.086c98.03,58.1,199.4,118.186,326.774,118.186S800.968,302.634,899,244.534c98.776-58.546,200.918-119.086,330.049-119.086v6.431c-127.369,0-228.74,60.081-326.774,118.186C803.5,308.611,701.364,369.151,572.228,369.151Z" transform="translate(578.398 -125.448)" fill="#fff"/>
        </g>
        <g id="Group_12839" data-name="Group 12839" transform="translate(0 269.407)">
          <path id="Path_3867" data-name="Path 3867" d="M572.228,359.089c-129.136,0-231.278-60.54-330.054-119.086C144.144,181.9,42.774,121.817-84.6,121.817S-313.339,181.9-411.369,240c-52.535,31.136-106.858,63.335-164.68,86.059l-2.35-5.985c57.337-22.535,111.433-54.6,163.749-85.609,98.776-58.542,200.918-119.082,330.05-119.082s231.273,60.54,330.054,119.086c98.03,58.1,199.4,118.186,326.774,118.186S800.968,292.572,899,234.472c98.776-58.546,200.918-119.086,330.049-119.086v6.431c-127.369,0-228.74,60.081-326.774,118.186C803.5,298.549,701.364,359.089,572.228,359.089Z" transform="translate(578.398 -115.386)" fill="#fff"/>
        </g>
        <g id="Group_12840" data-name="Group 12840" transform="translate(0 226.266)">
          <path id="Path_3868" data-name="Path 3868" d="M572.228,349.027c-129.136,0-231.278-60.54-330.054-119.086-98.03-58.1-199.4-118.186-326.774-118.186s-228.74,60.081-326.769,118.186C-463.9,261.077-518.227,293.276-576.048,316l-2.35-5.985c57.337-22.535,111.433-54.6,163.753-85.6C-315.869,165.864-213.731,105.324-84.6,105.324s231.273,60.54,330.054,119.086c98.03,58.1,199.4,118.186,326.774,118.186S800.968,282.515,899,224.41c98.776-58.546,200.918-119.086,330.049-119.086v6.431c-127.369,0-228.74,60.081-326.774,118.186C803.5,288.487,701.364,349.027,572.228,349.027Z" transform="translate(578.398 -105.324)" fill="#fff"/>
        </g>
        <g id="Group_12841" data-name="Group 12841" transform="translate(0 183.129)">
          <path id="Path_3869" data-name="Path 3869" d="M572.228,338.962c-129.136,0-231.278-60.54-330.054-119.082-98.03-58.1-199.4-118.186-326.774-118.186s-228.74,60.077-326.769,118.181c-52.535,31.136-106.858,63.335-164.68,86.063l-2.35-5.985c57.337-22.54,111.433-54.606,163.749-85.609C-315.873,155.8-213.731,95.263-84.6,95.263S146.674,155.8,245.454,214.345c98.03,58.1,199.4,118.186,326.774,118.186S800.968,272.449,899,214.345C997.778,155.8,1099.92,95.263,1229.051,95.263v6.431c-127.369,0-228.74,60.081-326.774,118.186C803.5,278.422,701.364,338.962,572.228,338.962Z" transform="translate(578.398 -95.263)" fill="#fff"/>
        </g>
        <g id="Group_12842" data-name="Group 12842" transform="translate(0 139.988)">
          <path id="Path_3870" data-name="Path 3870" d="M572.228,328.9c-129.136,0-231.278-60.536-330.054-119.082C144.144,151.713,42.774,91.632-84.6,91.632s-228.74,60.081-326.769,118.186c-52.535,31.136-106.858,63.331-164.68,86.059l-2.35-5.985c57.337-22.54,111.433-54.6,163.749-85.609C-315.873,145.737-213.731,85.2-84.6,85.2s231.273,60.536,330.054,119.086c98.03,58.1,199.4,118.181,326.774,118.181S800.968,262.387,899,204.287C997.778,145.737,1099.92,85.2,1229.051,85.2v6.431c-127.369,0-228.74,60.081-326.774,118.186C803.5,268.364,701.364,328.9,572.228,328.9Z" transform="translate(578.398 -85.201)" fill="#fff"/>
        </g>
        <g id="Group_12843" data-name="Group 12843" transform="translate(0 96.847)">
          <path id="Path_3871" data-name="Path 3871" d="M572.228,318.838c-129.136,0-231.278-60.536-330.054-119.082C144.144,141.651,42.774,81.57-84.6,81.57s-228.74,60.081-326.769,118.186c-52.535,31.136-106.858,63.335-164.68,86.059l-2.35-5.985c57.337-22.539,111.433-54.6,163.749-85.609C-315.873,135.679-213.731,75.139-84.6,75.139s231.273,60.54,330.054,119.082c98.03,58.1,199.4,118.186,326.774,118.186S800.968,252.325,899,194.221c98.776-58.542,200.918-119.082,330.049-119.082V81.57c-127.369,0-228.74,60.081-326.774,118.186C803.5,258.3,701.364,318.838,572.228,318.838Z" transform="translate(578.398 -75.139)" fill="#fff"/>
        </g>
        <g id="Group_12844" data-name="Group 12844" transform="translate(0 53.706)">
          <path id="Path_3872" data-name="Path 3872" d="M572.228,308.78c-129.136,0-231.278-60.54-330.054-119.086C144.144,131.589,42.774,71.508-84.6,71.508s-228.74,60.081-326.769,118.186c-52.535,31.136-106.858,63.331-164.68,86.059l-2.35-5.985c57.337-22.535,111.433-54.6,163.753-85.609C-315.869,125.617-213.731,65.077-84.6,65.077s231.273,60.54,330.054,119.086c98.03,58.1,199.4,118.186,326.774,118.186S800.968,242.268,899,184.163c98.776-58.546,200.918-119.086,330.049-119.086v6.431c-127.369,0-228.74,60.081-326.774,118.186C803.5,248.24,701.364,308.78,572.228,308.78Z" transform="translate(578.398 -65.077)" fill="#fff"/>
        </g>
        <g id="Group_12845" data-name="Group 12845" transform="translate(0 10.569)">
          <path id="Path_3873" data-name="Path 3873" d="M572.228,298.715c-129.136,0-231.278-60.536-330.054-119.086C144.144,121.528,42.774,61.447-84.6,61.447s-228.74,60.077-326.769,118.181c-52.535,31.136-106.858,63.335-164.68,86.063l-2.35-5.985c57.337-22.54,111.433-54.606,163.749-85.613C-315.873,115.552-213.731,55.016-84.6,55.016S146.674,115.552,245.454,174.1c98.03,58.1,199.4,118.186,326.774,118.186S800.968,232.2,899,174.1c98.776-58.546,200.918-119.082,330.049-119.082v6.431c-127.369,0-228.74,60.081-326.774,118.181C803.5,238.179,701.364,298.715,572.228,298.715Z" transform="translate(578.398 -55.016)" fill="#fff"/>
        </g>
        <g id="Group_12846" data-name="Group 12846" transform="translate(655.696)">
          <path id="Path_3874" data-name="Path 3874" d="M69.463,263.677c-129.14,0-231.286-60.54-330.067-119.09-52.655-31.209-107.1-63.477-164.864-86.042l2.341-5.994c58.25,22.758,112.925,55.163,165.8,86.505,98.034,58.109,199.408,118.19,326.787,118.19S298.2,197.165,396.237,139.06C449.115,107.719,503.8,75.309,562.053,52.551l2.341,5.994c-57.77,22.565-112.222,54.837-164.881,86.046C300.737,203.142,198.6,263.677,69.463,263.677Z" transform="translate(425.467 -52.551)" fill="#fff"/>
        </g>
        <g id="Group_12847" data-name="Group 12847">
          <path id="Path_3875" data-name="Path 3875" d="M-576.048,230.655l-2.35-5.985c57.337-22.54,111.433-54.6,163.749-85.613,52.882-31.338,107.561-63.747,165.812-86.505l2.341,5.994c-57.761,22.561-112.217,54.837-164.872,86.046C-463.9,175.727-518.227,207.927-576.048,230.655Z" transform="translate(578.398 -52.551)" fill="#fff"/>
        </g>
        <g id="Group_12848" data-name="Group 12848" transform="translate(745.939 0.176)">
          <path id="Path_3876" data-name="Path 3876" d="M.268,220.406c-129.136,0-231.282-60.54-330.062-119.09-24.323-14.419-49.482-29.327-74.624-43.081l3.087-5.642c25.241,13.806,50.447,28.744,74.822,43.193,98.03,58.1,199.4,118.19,326.778,118.19s228.74-60.085,326.774-118.19C351.42,81.34,376.622,66.4,401.867,52.592l3.087,5.642c-25.146,13.754-50.3,28.666-74.633,43.081C231.541,159.866,129.4,220.406.268,220.406Z" transform="translate(404.419 -52.592)" fill="#fff"/>
        </g>
        <g id="Group_12849" data-name="Group 12849" transform="translate(0 0.176)">
          <path id="Path_3877" data-name="Path 3877" d="M-576.048,187.379l-2.35-5.985c57.333-22.54,111.424-54.6,163.736-85.6,24.379-14.449,49.59-29.391,74.839-43.2l3.083,5.642c-25.151,13.759-50.31,28.671-74.646,43.09C-463.912,132.46-518.231,164.651-576.048,187.379Z" transform="translate(578.398 -52.592)" fill="#fff"/>
        </g>
        <g id="Group_12850" data-name="Group 12850" transform="translate(820.572 0.232)">
          <path id="Path_3878" data-name="Path 3878" d="M-56.958,177.222c-129.132,0-231.273-60.54-330.054-119.086l3.28-5.531c98.034,58.1,199.4,118.186,326.774,118.186S171.773,110.714,269.8,52.614l3.3,5.522C174.3,116.691,72.169,177.222-56.958,177.222Z" transform="translate(387.012 -52.605)" fill="#fff"/>
        </g>
        <g id="Group_12851" data-name="Group 12851" transform="translate(0 0.279)">
          <path id="Path_3879" data-name="Path 3879" d="M-576.048,144.163l-2.35-5.99c57.3-22.527,111.373-54.567,163.663-85.558l3.361,5.484C-463.964,89.266-518.257,121.444-576.048,144.163Z" transform="translate(578.398 -52.616)" fill="#fff"/>
        </g>
        <g id="Group_12852" data-name="Group 12852" transform="translate(895.398 0.176)">
          <path id="Path_3880" data-name="Path 3880" d="M-114.332,134.124c-102.648,0-186.623-38.361-255.228-75.889l3.087-5.642c67.893,37.134,150.942,75.1,252.141,75.1S69.92,89.726,137.813,52.592l3.087,5.642C72.291,95.763-11.684,134.124-114.332,134.124Z" transform="translate(369.56 -52.592)" fill="#fff"/>
        </g>
        <g id="Group_12853" data-name="Group 12853" transform="translate(0 0.176)">
          <path id="Path_3881" data-name="Path 3881" d="M-576.048,101.1l-2.35-5.99c27.59-10.843,55.9-24.353,89.108-42.519l3.087,5.642C-519.65,76.534-548.2,90.155-576.048,101.1Z" transform="translate(578.398 -52.592)" fill="#fff"/>
        </g>
        <g id="Group_12854" data-name="Group 12854" transform="translate(986.388)">
          <path id="Path_3882" data-name="Path 3882" d="M-184.1,91.117c-54.4,0-108.123-10.655-164.238-32.572L-346,52.551c55.356,21.626,108.311,32.135,161.9,32.135S-77.559,74.177-22.207,52.551l2.341,5.994C-75.982,80.463-129.7,91.117-184.1,91.117Z" transform="translate(348.338 -52.551)" fill="#fff"/>
        </g>
      </g>
    </g>
  </g>
</svg>
